<mxfile host="app.diagrams.net" modified="2021-06-07T20:48:56.730Z" agent="5.0 (Macintosh; Intel Mac OS X 10_15_7) AppleWebKit/537.36 (KHTML, like Gecko) Chrome/91.0.4472.77 Safari/537.36" etag="c03sseHd3ymo9mRzuedi" version="14.7.6" type="github">
  <diagram id="c0Hqt-gthOr3a3wGsvK9" name="Page-1">
    <mxGraphModel dx="2021" dy="769" grid="1" gridSize="10" guides="1" tooltips="1" connect="1" arrows="1" fold="1" page="1" pageScale="1" pageWidth="850" pageHeight="1100" math="0" shadow="0">
      <root>
        <mxCell id="0" />
        <mxCell id="1" parent="0" />
        <mxCell id="JdFREqm8MHA4cE_s_k7g-9" value="" style="swimlane;startSize=0;" vertex="1" parent="1">
          <mxGeometry x="80" y="40" width="490" height="200" as="geometry">
            <mxRectangle x="80" y="40" width="50" height="40" as="alternateBounds" />
          </mxGeometry>
        </mxCell>
        <mxCell id="JdFREqm8MHA4cE_s_k7g-12" value="Component" style="rounded=0;whiteSpace=wrap;html=1;" vertex="1" parent="JdFREqm8MHA4cE_s_k7g-9">
          <mxGeometry x="265" y="140" width="120" height="40" as="geometry" />
        </mxCell>
        <mxCell id="JdFREqm8MHA4cE_s_k7g-11" value="Sensor" style="rounded=0;whiteSpace=wrap;html=1;" vertex="1" parent="JdFREqm8MHA4cE_s_k7g-9">
          <mxGeometry x="125" y="140" width="120" height="40" as="geometry" />
        </mxCell>
        <mxCell id="JdFREqm8MHA4cE_s_k7g-2" value="Homio Hub" style="rounded=0;whiteSpace=wrap;html=1;" vertex="1" parent="JdFREqm8MHA4cE_s_k7g-9">
          <mxGeometry x="115" y="20" width="120" height="60" as="geometry" />
        </mxCell>
        <mxCell id="JdFREqm8MHA4cE_s_k7g-3" value="Sensor" style="rounded=0;whiteSpace=wrap;html=1;" vertex="1" parent="JdFREqm8MHA4cE_s_k7g-9">
          <mxGeometry x="115" y="130" width="120" height="40" as="geometry" />
        </mxCell>
        <mxCell id="JdFREqm8MHA4cE_s_k7g-4" style="edgeStyle=orthogonalEdgeStyle;rounded=0;orthogonalLoop=1;jettySize=auto;html=1;entryX=0.5;entryY=1;entryDx=0;entryDy=0;startArrow=classic;startFill=1;" edge="1" parent="JdFREqm8MHA4cE_s_k7g-9" source="JdFREqm8MHA4cE_s_k7g-3" target="JdFREqm8MHA4cE_s_k7g-2">
          <mxGeometry relative="1" as="geometry" />
        </mxCell>
        <mxCell id="JdFREqm8MHA4cE_s_k7g-14" style="edgeStyle=orthogonalEdgeStyle;rounded=0;orthogonalLoop=1;jettySize=auto;html=1;exitX=0.25;exitY=1;exitDx=0;exitDy=0;entryX=0.5;entryY=0;entryDx=0;entryDy=0;startArrow=classic;startFill=1;" edge="1" parent="JdFREqm8MHA4cE_s_k7g-9" source="JdFREqm8MHA4cE_s_k7g-1" target="JdFREqm8MHA4cE_s_k7g-3">
          <mxGeometry relative="1" as="geometry">
            <Array as="points">
              <mxPoint x="285" y="100" />
              <mxPoint x="175" y="100" />
            </Array>
          </mxGeometry>
        </mxCell>
        <mxCell id="JdFREqm8MHA4cE_s_k7g-15" style="edgeStyle=orthogonalEdgeStyle;rounded=0;orthogonalLoop=1;jettySize=auto;html=1;entryX=0.5;entryY=0;entryDx=0;entryDy=0;startArrow=classic;startFill=1;" edge="1" parent="JdFREqm8MHA4cE_s_k7g-9" source="JdFREqm8MHA4cE_s_k7g-1" target="JdFREqm8MHA4cE_s_k7g-6">
          <mxGeometry relative="1" as="geometry" />
        </mxCell>
        <mxCell id="JdFREqm8MHA4cE_s_k7g-20" style="edgeStyle=orthogonalEdgeStyle;rounded=0;orthogonalLoop=1;jettySize=auto;html=1;exitX=1;exitY=0.5;exitDx=0;exitDy=0;entryX=0;entryY=0.5;entryDx=0;entryDy=0;startArrow=classic;startFill=1;" edge="1" parent="JdFREqm8MHA4cE_s_k7g-9" source="JdFREqm8MHA4cE_s_k7g-1" target="JdFREqm8MHA4cE_s_k7g-18">
          <mxGeometry relative="1" as="geometry" />
        </mxCell>
        <mxCell id="JdFREqm8MHA4cE_s_k7g-1" value="ESPHome&lt;br&gt;Core" style="rounded=0;whiteSpace=wrap;html=1;" vertex="1" parent="JdFREqm8MHA4cE_s_k7g-9">
          <mxGeometry x="255" y="20" width="120" height="60" as="geometry" />
        </mxCell>
        <mxCell id="JdFREqm8MHA4cE_s_k7g-6" value="Component" style="rounded=0;whiteSpace=wrap;html=1;" vertex="1" parent="JdFREqm8MHA4cE_s_k7g-9">
          <mxGeometry x="255" y="130" width="120" height="40" as="geometry" />
        </mxCell>
        <mxCell id="JdFREqm8MHA4cE_s_k7g-16" style="edgeStyle=orthogonalEdgeStyle;rounded=0;orthogonalLoop=1;jettySize=auto;html=1;exitX=0.75;exitY=1;exitDx=0;exitDy=0;startArrow=classic;startFill=1;entryX=0.5;entryY=0;entryDx=0;entryDy=0;" edge="1" parent="JdFREqm8MHA4cE_s_k7g-9" source="JdFREqm8MHA4cE_s_k7g-2" target="JdFREqm8MHA4cE_s_k7g-6">
          <mxGeometry relative="1" as="geometry">
            <mxPoint x="415" y="130" as="targetPoint" />
            <Array as="points">
              <mxPoint x="205" y="110" />
              <mxPoint x="315" y="110" />
            </Array>
          </mxGeometry>
        </mxCell>
        <mxCell id="JdFREqm8MHA4cE_s_k7g-19" style="edgeStyle=orthogonalEdgeStyle;rounded=0;orthogonalLoop=1;jettySize=auto;html=1;exitX=1;exitY=0.5;exitDx=0;exitDy=0;entryX=0;entryY=0.5;entryDx=0;entryDy=0;startArrow=classic;startFill=1;" edge="1" parent="JdFREqm8MHA4cE_s_k7g-9" source="JdFREqm8MHA4cE_s_k7g-17" target="JdFREqm8MHA4cE_s_k7g-2">
          <mxGeometry relative="1" as="geometry" />
        </mxCell>
        <mxCell id="JdFREqm8MHA4cE_s_k7g-17" value="nRF24" style="rounded=0;whiteSpace=wrap;html=1;" vertex="1" parent="JdFREqm8MHA4cE_s_k7g-9">
          <mxGeometry x="25" y="20" width="60" height="60" as="geometry" />
        </mxCell>
        <mxCell id="JdFREqm8MHA4cE_s_k7g-18" value="WiFi" style="rounded=0;whiteSpace=wrap;html=1;" vertex="1" parent="JdFREqm8MHA4cE_s_k7g-9">
          <mxGeometry x="405" y="20" width="60" height="60" as="geometry" />
        </mxCell>
        <mxCell id="JdFREqm8MHA4cE_s_k7g-21" value="ESPHome Hub" style="text;html=1;align=center;verticalAlign=middle;resizable=0;points=[];autosize=1;strokeColor=none;" vertex="1" parent="1">
          <mxGeometry x="470" y="210" width="100" height="20" as="geometry" />
        </mxCell>
      </root>
    </mxGraphModel>
  </diagram>
</mxfile>
